<svg id="Layer_1" data-name="Layer 1" xmlns="http://www.w3.org/2000/svg" xmlns:xlink="http://www.w3.org/1999/xlink"
    viewBox="0 0 2001 1877.47">
    <defs>
        <style>
            .cls-1 {
                fill: none;
            }

            .cls-2 {
                clip-path: url(#clip-path);
            }

            .cls-3 {
                clip-path: url(#clip-path-2);
            }

            .cls-4 {
                fill: #ffcb04;
            }

            .cls-5 {
                fill: #263b95;
            }

            .cls-6 {
                fill: #d61f28;
            }

            .cls-7 {
                fill: #fff;
                stroke: #52504d;
            }
        </style>
        <clipPath id="clip-path" transform="translate(0.5 -61.26)">
            <ellipse id="Mask" class="cls-1" cx="1002.32" cy="999.12" rx="964.41" ry="912.29" />
        </clipPath>
        <clipPath id="clip-path-2" transform="translate(0.5 -61.26)">
            <rect id="SVGID" class="cls-1" x="38" y="106.31" width="1929" height="1768.24" />
        </clipPath>
    </defs>
    <g id="Flag_frame" data-name="Flag frame">
        <g class="cls-2">
            <g id="CO">
                <g class="cls-3">
                    <rect class="cls-4" x="38.5" y="45.05" width="1929" height="884.12" />
                    <rect class="cls-5" x="38.5" y="929.17" width="1929" height="442.11" />
                    <rect class="cls-6" x="38.5" y="1371.28" width="1929" height="442.01" />
                </g>
            </g>
        </g>
    </g>
    <path class="cls-7"
        d="M0,1000C0,481.79,447.68,61.81,1000,61.76s1000,420,1000,938.26-447.72,938.17-1000,938.22S0,1518.21,0,1000M354.27,394.17C188.9,549.4,86.86,763.25,86.81,1000s102.09,450.59,267.46,605.82,393.37,250.92,645.7,251,480.29-95.83,645.73-251,267.44-369.07,267.47-605.82S1811.06,549.4,1645.7,394.17,1252.35,143.24,1000,143.22,519.7,239,354.27,394.17"
        transform="translate(0.5 -61.26)" />
    <path class="cls-7"
        d="M1870.58,936.56l-6.41,17.18-236.12-19.4s-15.54-13.59-27.13-13.94-20.69,10.94-20.69,10.94l-200.85-32.78s-10.91-20.68-35.57-21.49-25,10.77-25,10.77c-223.84-39.31-228.93-61.28-228.93-61.28s-2.36-23.69-2.36-63.36c0-149.68-59-234.06-87.92-234.78S912,612.53,912,760.23c0,39.66-2.7,66.33-2.7,66.33s-5.07,22-228.92,61.28c0,0-.39-11.61-25.06-10.77s-35.59,21.49-35.59,21.49L418.91,931.34s-9.08-11.32-20.7-10.94-27.11,13.94-27.11,13.94L135,953.74l-6.38-17.21s-3,40.77,17.3,40.12,209.17.34,209.17.34.44,13.08,5,20.19,27.07,28.15,31.41,28,24.2-15.29,24.2-15.29l9,9.87,41.49-1.37s2.13,6.84,7.08,6.69,4.8-7,4.8-7l94.05-3.08s1,12.47,8.75,12.22,7.89-12.76,7.89-12.76l26.8-.89s2.08,8.84,6.86,8.69,10.39-9.29,10.15-16.42-.37-29.18-.37-29.18l15.49-.51s.87,8.33,5.62,8.18,9.18-10.44,9.18-10.44l45.85-1.51.28,8.89-24.4.82a76.33,76.33,0,0,0-5,28.17c.5,14.87-3.13,31.69,14.21,33.51s134.28,6.29,134.28,6.29l.84,26.18L707.46,1091l.23,5.93s85.41,6.12,135.38,4.47,114.29-3.75,114.29-3.75,26.74,33.65,42.19,33.15c15.51.5,42.24-33.15,42.24-33.15s64.26,2.09,114.25,3.75,135.41-4.47,135.41-4.47l.18-5.93-121.05-14.74.84-26.19s116.92-4.46,134.29-6.28,13.71-18.64,14.22-33.51a77.4,77.4,0,0,0-5-28.17l-24.44-.79.28-8.91,45.85,1.5s4.42,10.3,9.18,10.44,5.63-8.18,5.63-8.18l15.48.51s-.15,22-.36,29.18,5.42,16.28,10.16,16.42,6.83-8.69,6.83-8.69l26.82.89s.16,12.5,7.87,12.76S1427,1015,1427,1015l94.06,3.1s-.26,6.77,4.76,6.95,7.15-6.69,7.15-6.69l41.45,1.37,9-9.87s19.84,15.15,24.16,15.29,26.86-20.89,31.45-28,5-20.19,5-20.19,188.88-1,209.2-.34,17.31-40.09,17.31-40.09M920.51,1046.43c.34,10.13.7,21.43-1.68,21.51l-31.52,1c-10.73.34-15-3.69-15.17-7.86-.15-4.76,7.5-7.38,15.85-7.66s16-1.73,15.91-4.71-.83-25-.83-25c-.33-10.67,12.85-8.75,15.3-6.42s1.82,19,2.14,29.1M1111.85,1069c-10.72-.37-29.17-1-31.56-1s-2-11.38-1.66-21.51-.31-26.85,2.12-29.1,15.63-4.25,15.29,6.42c0,0-.71,22-.81,25s7.59,4.45,15.94,4.71,16,2.9,15.83,7.66c-.11,4.17-4.45,8.2-15.15,7.86"
        transform="translate(0.5 -61.26)" />
    <path class="cls-7" d="M269.71,1404.75v-205.2h76v205.2Z" transform="translate(0.5 -61.26)" />
    <path class="cls-7" d="M603.36,1404.75l-134.47-205.2h82.38l95.21,151.87,92.13-151.87h80.58l-134.73,205.2Z"
        transform="translate(0.5 -61.26)" />
    <path class="cls-7"
        d="M1286.54,1404.75h-82.63l-32.85-46.61H1020.68l-31,46.61H909.05l146.53-205.2h80.32Zm-139.86-81.18-51.84-76.15L1044,1323.57Z"
        transform="translate(0.5 -61.26)" />
    <path class="cls-7"
        d="M1400.78,1303.41q0-31.35,17.19-52.63,12.84-15.67,35-28.14a180.87,180.87,0,0,1,48.63-18.47q35.16-8.12,81.09-8.12,83.16,0,133.06,28.13t49.92,78.25q0,49.69-49.53,77.76t-132.42,28.06q-83.91,0-133.44-27.92T1400.78,1303.41Zm78.27-1.4q0,34.86,29.51,52.84t74.93,18q45.43,0,74.56-17.85t29.12-53.54q0-35.27-28.35-52.63t-75.33-17.36q-47,0-75.7,17.57T1479.05,1302Z"
        transform="translate(0.5 -61.26)" />
</svg>
